<?xml
  version="1.0"
  encoding="utf-8"
?>
<svg
  version="1.1"
  xmlns="http://www.w3.org/2000/svg"
  xmlns:xlink="http://www.w3.org/1999/xlink"
  x="0px"
  y="0px"
  viewBox="0 0 100 100"
  xml:space="preserve"
>
  <rect fill="#2C2E31" width="100" height="100"/>
  <path fill="#FBF8F6" d="M81.2,35.9c-7.5-5.3-10.1-6.3-12.8-6.3c-4.1,0-6.5,2.1-6.5,5.7c0,4.1,3.2,6.5,9.4,10.4c6.8,4.1,10.9,7,10.9,14
    c0,7.6-5.5,12.9-15.2,12.9c-4.1,0-8.1-0.7-12-1.9l-1.7-8l0.4-0.1c8,6.7,10.5,8.2,14,8.2c4.2,0,6.8-2.6,6.8-6.8
    c0-4.7-3.4-6.8-9.5-10.5c-6.5-3.9-10.8-7.5-10.8-13.8c0-7,5.4-11.7,14.8-11.7c4.1,0.1,8.1,0.5,12.1,1.3l0.5,6.6L81.2,35.9z"/>
  <path fill="#FBF8F6" d="M50.3,38.1v33.3h-9.1v-5c-2.7,3.8-7.1,6-11.7,5.9c-6.9,0-11.7-4.1-11.7-11.3c0-9.8,8.9-11.8,23.4-14.8v-10
    c0-4.4-1.8-6.6-5.7-6.6c-3.2,0-6.2,1.8-15.6,9.4l-0.4-0.1l0.4-7.3c5.4-2.1,11.9-3.8,17.4-3.8C45.8,27.7,50.3,31.4,50.3,38.1z
    M41.2,65.1v-17c-10.8,2.2-14.1,4.6-14.1,11.4c0,5.8,2.2,8.7,6.8,8.7C36.6,68.2,39.3,67.1,41.2,65.1z"/>
</svg>
